<svg version="1.1" preserveAspectRatio="none" xmlns="http://www.w3.org/2000/svg" width="500" height="500" viewBox="0 0 500 500"><rect width="100%" height="100%" fill="#2089EF" fill-opacity="1"/><svg viewBox="111.3003 148.8394 386.323 257.3937" width="333" height="221.86642291553963" x="83.5px" y="139.0668px" xmlns="http://www.w3.org/2000/svg" xmlns:xlink="http://www.w3.org/1999/xlink" preserveAspectRatio="none"><defs></defs><style>.companyName {fill:#D9F18A;fill-opacity:1;}.icon1 {fill:#FFA2E8;fill-opacity:1;}.icon2 {fill:#FFDEAC;fill-opacity:1;}.icon3 {fill:#89EFCA;fill-opacity:1;}.icon3-str {stroke:#89EFCA;stroke-opacity:1;}</style><g opacity="1" transform="rotate(0 227.1972 148.8394)">
<svg width="154.5292" height="167.3937" x="227.1972" y="148.8394" version="1.1" preserveAspectRatio="none" viewBox="27.015003204345703 20.94013023376465 145.96820068359375 158.11985778808594">
  <g transform="matrix(1 0 0 1 0 0)" ><g><path d="M169.425 93.947c-5.775.321-16.166 3.752-22.432 13.729-4.943-4.708-12.382-8.025-20.357-8.916-7.232-.807-14.152.403-20.131 3.423 1.268-7.269 1.73-14.903 2.152-21.93.611-10.191 1.191-19.86 3.891-25.25.86-.1 2.146-.241 3.894-.426.08 3.101.79 10.63 5.648 14.605 1.944 1.59 5.357 3.226 10.575 1.984 10.251-2.44 16.311-16.078 19.588-27.088 1.311-4.402-.595-9.064-4.633-11.338-10.091-5.683-21.939-9.575-35.216-11.569l-.531-.08c-6.038-.932-8.067 2.511-11.751 8.757l-.417.708c-.812 1.374-3.319 3.405-6.223 5.756-8.479 6.867-22.67 18.359-32.916 42.639-12.444 29.486-13.716 54.185-13.836 60.101-1.562 1.892-4.579 6.034-5.393 10.647-1.107 6.278 3.016 9.232 6.329 11.605.69.494 1.417 1.014 2.152 1.592 4.195 3.297 10.35 2.571 13.51 1.89 15.482 10.32 31.864 14.274 46.773 14.274 19.384 0 36.276-6.689 45.444-14.778a3.371 3.371 0 1 0-4.462-5.057c-14.748 13.014-51.867 21.848-84.701-.513-1.109-.757-2.516-.997-3.861-.661-2.785.695-6.691.993-8.536-.458a65.295 65.295 0 0 0-2.392-1.771c-3.5-2.508-3.94-3.109-3.615-4.951.594-3.364 3.505-7.093 4.572-8.241l.925-.988-.013-1.353c-.002-.266-.102-26.92 13.317-58.716 9.59-22.724 22.442-33.132 30.947-40.02 3.689-2.988 6.355-5.146 7.785-7.566l.42-.712c3.394-5.754 3.481-5.74 4.917-5.519l.555.084c12.463 1.872 23.535 5.498 32.909 10.776 1.277.719 1.885 2.174 1.479 3.538-3.803 12.775-9.294 21.169-14.687 22.453-3.061.728-4.321-.3-4.736-.637-2.42-1.972-3.084-6.893-3.178-9.459l2.376 1.286a3.372 3.372 0 1 0 3.211-5.931l-3.116-1.687-.098-.051a8.057 8.057 0 0 0-4.436-.813c-12.534 1.272-12.534 1.272-13.486 2.717-4.319 6.542-4.966 17.329-5.715 29.819-1.13 18.819-2.409 40.149-17.474 46.175a3.373 3.373 0 1 0 2.505 6.262c9.201-3.68 14.293-11.341 17.24-20.504.018-.015.038-.024.055-.039 5.725-4.971 13.41-7.201 21.635-6.281 7.414.828 14.388 4.249 17.999 8.772a35.864 35.864 0 0 0-1.11 3.933 3.374 3.374 0 0 0 3.296 4.1 3.377 3.377 0 0 0 3.29-2.646 23.161 23.161 0 0 1 20.448-18.941 3.372 3.372 0 0 0 3.168-3.553 3.371 3.371 0 0 0-3.553-3.182z" data-color="1" class="icon1"></path><path d="M136.658 142.277c-3.13 3.867-9.5 6.635-16.622 7.225-8.386.688-16.34-1.701-21.833-6.569a3.373 3.373 0 0 0-4.473 5.047c6.102 5.408 14.518 8.383 23.483 8.383a40.82 40.82 0 0 0 3.378-.14c9.029-.747 16.994-4.374 21.307-9.701a3.373 3.373 0 0 0-5.24-4.245z" data-color="1" class="icon1"></path><path d="M27.31 92.922l16.424 2.925-.295 1.662-16.424-2.925.296-1.662z" data-color="1" class="icon1"></path><path d="M30.189 80.513l16.087 4.416-.447 1.627-16.087-4.416.447-1.627z" data-color="1" class="icon1"></path><path d="M34.226 68.39l15.598 5.917-.6 1.578-15.597-5.917.6-1.578z" data-color="1" class="icon1"></path><path d="M39.463 56.644l14.914 7.473-.756 1.51-14.914-7.474.756-1.51z" data-color="1" class="icon1"></path></g></g>
</svg>
</g><g opacity="1" transform="rotate(0 111.3003 356.2331)">
<svg width="386.323" height="50" x="111.3003" y="356.2331" version="1.1" preserveAspectRatio="none" viewBox="0 -28.6 222.51999999999998 28.8">
  <g transform="matrix(1 0 0 1 0 0)" class="companyName"><path id="id-D6z1nYkh7" d="M21.56 0L20.16-4.28L10.72-4.28L9.32 0L0 0L10.36-28.32L20.60-28.32L30.92 0L21.56 0ZM12.88-10.96L18-10.96L15.44-18.84L12.88-10.96Z M46.44-28.60Q52-28.60 55.50-25.92Q59-23.24 59.64-18.64L59.64-18.64L50.28-18.64Q49.76-19.48 48.80-19.94Q47.84-20.40 46.48-20.40L46.48-20.40Q43.92-20.40 42.52-18.74Q41.12-17.08 41.12-14.20L41.12-14.20Q41.12-10.88 42.68-9.24Q44.24-7.60 47.48-7.60L47.48-7.60Q50.56-7.60 52.44-10.08L52.44-10.08L45.36-10.08L45.36-16.36L59.80-16.36L59.80-7.48Q57.96-4.32 54.72-2.06Q51.48 0.20 46.52 0.20L46.52 0.20Q42.12 0.20 38.86-1.62Q35.60-3.44 33.86-6.72Q32.12-10 32.12-14.20L32.12-14.20Q32.12-18.40 33.86-21.68Q35.60-24.96 38.84-26.78Q42.08-28.60 46.44-28.60L46.44-28.60Z M76.52-28.60Q82.08-28.60 85.58-25.92Q89.08-23.24 89.72-18.64L89.72-18.64L80.36-18.64Q79.84-19.48 78.88-19.94Q77.92-20.40 76.56-20.40L76.56-20.40Q74-20.40 72.60-18.74Q71.20-17.08 71.20-14.20L71.20-14.20Q71.20-10.88 72.76-9.24Q74.32-7.60 77.56-7.60L77.56-7.60Q80.64-7.60 82.52-10.08L82.52-10.08L75.44-10.08L75.44-16.36L89.88-16.36L89.88-7.48Q88.04-4.32 84.80-2.06Q81.56 0.20 76.60 0.20L76.60 0.20Q72.20 0.20 68.94-1.62Q65.68-3.44 63.94-6.72Q62.20-10 62.20-14.20L62.20-14.20Q62.20-18.40 63.94-21.68Q65.68-24.96 68.92-26.78Q72.16-28.60 76.52-28.60L76.52-28.60Z M112.64 0L111.24-4.28L101.80-4.28L100.40 0L91.08 0L101.44-28.32L111.68-28.32L122 0L112.64 0ZM103.96-10.96L109.08-10.96L106.52-18.84L103.96-10.96Z M148 0L138.24 0L132.88-10.16L132.88 0L124 0L124-28.32L137.20-28.32Q140.64-28.32 143.08-27.10Q145.52-25.88 146.74-23.78Q147.96-21.68 147.96-19.04L147.96-19.04Q147.96-16.20 146.38-14Q144.80-11.80 141.84-10.84L141.84-10.84L148 0ZM132.88-20.88L132.88-16.08L136.40-16.08Q137.68-16.08 138.32-16.66Q138.96-17.24 138.96-18.48L138.96-18.48Q138.96-19.60 138.30-20.24Q137.64-20.88 136.40-20.88L136.40-20.88L132.88-20.88Z M170.36 0L168.96-4.28L159.52-4.28L158.12 0L148.80 0L159.16-28.32L169.40-28.32L179.72 0L170.36 0ZM161.68-10.96L166.80-10.96L164.24-18.84L161.68-10.96Z M212.96-28.32L222.52-28.32L216.04 0L205.00 0L201.72-16.08L198.44 0L187.40 0L180.92-28.32L190.48-28.32L193.04-10.48L196.88-28.32L206.56-28.32L210.40-10.48L212.96-28.32Z"/></g>
</svg>
</g></svg></svg>