<svg version="1.1" preserveAspectRatio="none" xmlns="http://www.w3.org/2000/svg" width="500" height="500" viewBox="0 0 500 500"><rect width="100%" height="100%" fill="#1C1C1C" fill-opacity="1"/><svg viewBox="164.3868 407.7448 364.9856 193.8552" width="333" height="176.86665336933842" x="83.5px" y="161.5667px" xmlns="http://www.w3.org/2000/svg" xmlns:xlink="http://www.w3.org/1999/xlink" preserveAspectRatio="none"><defs></defs><style>.companyName {fill:#EDEDED;fill-opacity:1;}.icon1 {fill:#EDEDED;fill-opacity:1;}.icon2 {fill:#F35F40;fill-opacity:1;}.icon3 {fill:#B2B2B1;fill-opacity:1;}.icon3-str {stroke:#B2B2B1;stroke-opacity:1;}</style><g opacity="1" transform="rotate(0 255.6332 407.7448)">
<svg width="182.4928" height="73.8552" x="255.6332" y="407.7448" version="1.1" preserveAspectRatio="none" viewBox="20 67.147705078125 160 64.75230407714844">
  <g transform="matrix(1 0 0 1 0 0)" ><g><path d="M41.654 115.765c-.896-1.604-.12-3.526 1.439-4.176a2.958 2.958 0 0 1 1.013-.225l.889-.052 2.659-3.742c-.913-1.005-2.552-1.474-3.494-1.67l-13.957 22.683c-.073.183-1.779 1.12-2.177 1.272l-3.904 1.484a.217.217 0 0 0-.141.25.218.218 0 0 0 .221.184h6.257l11.274-15.868-.079-.14z" data-color="1" class="icon1"></path><path d="M49.824 102.878c-.218-1.429-2.03-2.846-2.462-3.166l-.414.621-3.281-1.148a1.378 1.378 0 0 0-.671-1l-3.865-2.266a1.362 1.362 0 0 0-.689-.188c-.472 0-.9.237-1.145.634-.626 1.011-1.208 2.587-.429 4.357.428.972 1.321 1.614 2.331 1.675a3.5 3.5 0 0 0 .207.006c.942 0 1.897-.378 2.851-1.117l2.456 1.649-.211 1.214c.838.358 2.032.767 3.113.767.849 0 1.48-.259 1.878-.77.291-.374.403-.801.331-1.268z" data-color="1" class="icon1"></path><path d="M52.299 99.734c-1.35 0-2.831-.321-4.401-.954L44.55 74.228l-3.194-.913c-.301-.1-.425-.296-.412-.444.015-.17.192-.301.464-.342l1.294.001-1.265-3.262c.011-.549.46-.992 1.012-.992a1 1 0 0 1 .483.125c.501.273.912.682 1.187 1.183l1.251 2.274c.505.918.89 1.898 1.145 2.913l5.54 22.026 3.144 2.345c-.85.393-1.825.592-2.9.592z" data-color="1" class="icon1"></path><path d="M60.528 111.78a6.354 6.354 0 0 0-.296-.126c-1.816-.76-3.38-.873-4.151-.873-.214 0-.363.009-.436.014-.611-.558-1.358-1.071-2.223-1.527l5.911-7.646 7.982 4.742c-1.075 1.956-3.116 4.443-6.787 5.416z" data-color="1" class="icon1"></path><path d="M99.714 131.773l.654-2.181-3.344-1.52 2.606-2.521 10.869 5.358c.239.118.28.35.242.512a.444.444 0 0 1-.443.352H99.714z" data-color="1" class="icon1"></path><path d="M41.467 131.773c-.255 0-.37-.184-.392-.342-.022-.158.04-.366.285-.435l7.726-2.152-1.978-3.543h3.712l.437 4.033.893 2.438H41.467z" data-color="1" class="icon1"></path><path d="M62.027 108.935a.384.384 0 0 1-.212-.096c-.112-.09-.147-.181-.142-.203.05.01.132.035.22.105.112.09.147.181.142.203l-.008-.009z" data-color="1" class="icon1"></path><path clip-rule="evenodd" fill-rule="evenodd" d="M144 122.9a9 9 0 1 1-18 0 9 9 0 0 1 18 0z" data-color="2" class="icon2"></path><path d="M158.628 103.885c.833-1.233 2.728-1.019 3.243.377.405 1.097.753 2.73.753 5.1 0 5.67-3.004 5.911-3.004 5.911s-2.665-.724-2.364-6.514c.124-2.381.716-3.905 1.372-4.874z" data-color="2" class="icon2"></path><path d="M171.128 115.273s-1.086-3.076-6.695.965-3.286 5.625-3.286 5.625 2.26 1.343 5.638 0 5.007-3.936 4.343-6.59z" data-color="2" class="icon2"></path><path d="M153.159 124.919c.036 2.739.59 5.202 1.464 6.97h6.573c.874-1.767 1.428-4.231 1.464-6.97h-9.501z" data-color="3" class="icon3"></path><path d="M133.222 114.122c4.84 0 8.778 3.938 8.778 8.778s-3.938 8.778-8.778 8.778-8.778-3.938-8.778-8.778 3.938-8.778 8.778-8.778m0-.222c-4.971 0-9 4.029-9 9s4.029 9 9 9 9-4.029 9-9-4.029-9-9-9z" data-color="4" class="icon1"></path><path d="M170.793 114.803l-.003-.01c-.011-.032-.285-.781-1.233-1.077-1.327-.416-3.222.254-5.632 1.99-3.168 2.283-3.82 3.806-3.809 4.681.007.575.289.913.439 1.053-.873 1.065-1.57 2.231-1.919 3.473h-.366c.469-2.687.79-6.438 1.008-9.985.526-.09 3.012-.794 3.012-6.008 0-2.044-.256-3.772-.76-5.139a1.898 1.898 0 0 0-1.582-1.244 1.954 1.954 0 0 0-1.857.844c-.816 1.207-1.284 2.865-1.391 4.93-.276 5.288 1.88 6.413 2.356 6.596-.218 3.558-.541 7.322-1.012 10.006h-.406c-.093-2.142-.836-4.292-1.839-6.261.08-.299.663-2.815-1.245-6.169-1.112-1.955-3.008-2.862-4.401-3.279a1.957 1.957 0 0 0-1.78.346 1.922 1.922 0 0 0-.727 1.649 7.328 7.328 0 0 0 1.721 4.296c2.339 2.793 5.702 3.209 6.237 3.258.988 1.939 1.719 4.054 1.812 6.159h-3.415l.002.112c.034 2.59.541 5.005 1.43 6.803l.03.062h6.508l.03-.062c.889-1.797 1.396-4.213 1.43-6.803l.002-.112h-4.566c.347-1.194 1.023-2.32 1.868-3.349.197.101.716.336 1.501.469.316.054.697.093 1.133.093.828 0 1.854-.143 3.012-.603 3.367-1.337 5.098-3.975 4.412-6.719zm-13.87-6.481c.106-2.024.561-3.645 1.353-4.818a1.702 1.702 0 0 1 1.646-.748c.651.079 1.175.49 1.401 1.101.495 1.342.746 3.045.746 5.062 0 4.826-2.221 5.647-2.777 5.777.315-5.245.404-9.977.405-10.057l-.221-.004c-.001.08-.089 4.802-.404 10.036-.522-.244-2.403-1.464-2.149-6.349zm-7.384 7.031a7.121 7.121 0 0 1-1.67-4.169 1.7 1.7 0 0 1 .644-1.461 1.712 1.712 0 0 1 1.578-.306c1.355.405 3.197 1.285 4.273 3.176 1.574 2.767 1.401 4.987 1.275 5.743-2.388-4.518-6.055-7.999-6.109-8.049l-.151.161c.054.051 3.743 3.552 6.109 8.071-.806-.097-3.815-.618-5.949-3.166zm12.297 16.315h-6.233c-.843-1.736-1.329-4.049-1.375-6.534h8.983c-.046 2.485-.532 4.798-1.375 6.534zm4.466-10.351c-2.858 1.137-4.922.31-5.418.071 2.967-3.497 7.795-5.834 7.859-5.865l-.095-.2c-.065.031-4.946 2.393-7.95 5.946-.121-.115-.355-.4-.359-.893-.007-.823.632-2.27 3.716-4.492 2.242-1.615 3.732-2.063 4.694-2.063.292 0 .535.041.736.104.816.253 1.07.873 1.094.938.654 2.628-1.025 5.161-4.277 6.454z" data-color="4" class="icon1"></path><path d="M180 131.678v.22H20v-.22h160z" data-color="4" class="icon1"></path><path d="M55.436 67.372c27.55.217 40.542 14.915 39.01 44.139l.222.012.042-.885c1.243-29.054-12.141-43.566-40.114-43.49l.001.222.839.002z" data-color="4" class="icon1"></path><path d="M110.548 130.809l-.873-.43-10.066-4.963-32.147-19.088.004-.006-8.16-4.847-3.893-2.313-3.259-2.431-5.53-21.988a12.33 12.33 0 0 0-1.156-2.939l-1.251-2.274a3.099 3.099 0 0 0-1.231-1.227 1.116 1.116 0 0 0-.536-.139c-.587 0-1.123.471-1.123 1.124l1.213 3.13h-1.148c-.735.112-.735.781-.065 1.004l3.124.893 3.347 24.545c.78.318.78.318 0 0l-.462.693-.43.645-2.373-.831c.013-.203.03-.406.03-.609v-1.646a.759.759 0 0 0-.704-.757l-.858-.063-1.846-2.396a3.036 3.036 0 0 0-2.794-1.158l-.53.068a1.719 1.719 0 0 1-1.665-.775l-2.227-3.464a.931.931 0 0 0-.795-.437.943.943 0 0 0-.929.728l-1.342 5.551a2.09 2.09 0 0 1-.832 1.221 2.087 2.087 0 0 0-.149 3.301c.491.415.634 1.112.346 1.687l-.421.842c-.453.906.033 2 1.009 2.271l.552.153a2.948 2.948 0 0 1 2.041 2.015l.543 1.862a1.18 1.18 0 0 0 1.972.505l1.634-1.634a1.092 1.092 0 0 1 1.521-.028l.242.225c.391.363.875.534 1.353.534a1.99 1.99 0 0 0 1.85-1.236l1.098-2.667c.122-.297.224-.6.322-.904l.64.429-.169.971-.402 1.955L30.1 128.542c-.043.108-1.591 1.01-2.113 1.209l-3.904 1.484c-.349.133-.254.651.119.651h6.315l11.276-15.872.404.724 2.268 4.06 2.453 4.394 2.002 3.584-7.59 2.114c-.568.159-.453.996.137.996h10.842l-.943-2.575-.446-4.119v-3.44a4.78 4.78 0 0 0-.747-2.566 9.785 9.785 0 0 1-.632-1.114l-.294-.63s4.854 1.222 9.61 1.222c2.773 0 5.511-.415 7.237-1.73l11.644 3.568a12.587 12.587 0 0 1 3.958 2.014c2.496 1.908 5.32 2.675 8.332 3.569l6.801 2.019 3.405 1.548-.669 2.231h10.733c.599.002.788-.809.25-1.074zm-59.404-1.476l.003.027.009.026.833 2.276H41.467c-.183 0-.265-.127-.282-.245-.016-.119.029-.263.204-.312l7.59-2.114.273-.076-.138-.248-1.816-3.253h3.422l.424 3.919zm8.217-27.565l7.631 4.533c-.481.881-1.098 1.896-1.958 2.845a10.323 10.323 0 0 1-4.496 2.516 7.737 7.737 0 0 0-.261-.111c-1.835-.768-3.416-.883-4.195-.883a6.66 6.66 0 0 0-.396.011 10.759 10.759 0 0 0-2.093-1.449l5.768-7.462zM44.67 74.285l-.02-.144-.14-.04-3.115-.89c-.247-.082-.35-.229-.341-.33.01-.111.148-.204.354-.239h1.456l-.118-.304-1.198-3.089c.022-.533.477-.861.899-.861.149 0 .294.037.429.111.483.263.878.657 1.143 1.139l1.251 2.274c.5.909.882 1.88 1.135 2.886l5.53 21.988.019.077.064.047 2.959 2.207c-.793.336-1.693.506-2.68.506-1.318 0-2.764-.31-4.299-.921L44.67 74.285zm-2.607 27.005c-.892.66-1.781 1.001-2.656 1.001-.069 0-.135-.002-.201-.006-.968-.059-1.825-.675-2.236-1.609-.759-1.725-.19-3.265.422-4.254a1.225 1.225 0 0 1 1.051-.581c.222 0 .441.06.633.172l3.865 2.266c.28.164.476.426.568.73.019.063.04.125.049.191.003.021 0 .042.002.064a1.26 1.26 0 0 1-.335.989 9.32 9.32 0 0 1-.969.897c-.066.051-.129.093-.193.14zm2.653 1.513l-2.274-1.527a9.16 9.16 0 0 0 .944-.869c.286-.302.408-.686.398-1.063l3.046 1.066.163.057.096-.144.3-.45c.545.417 2.129 1.729 2.325 3.024.067.441-.034.828-.309 1.182-.375.483-.978.727-1.79.727-1.01 0-2.129-.378-2.852-.671l-.134-.066.181-1.041.025-.143-.119-.082zm-14.315 28.858h-6.199c-.082 0-.105-.058-.111-.093-.006-.035-.006-.097.071-.126l3.904-1.484c.274-.104 1.999-1.002 2.222-1.302l.002.001 13.924-22.633c.917.197 2.419.643 3.296 1.554l-2.658 3.741-.747.043a2.963 2.963 0 0 0-1.013.225c-1.559.65-2.335 2.572-1.439 4.176l.018.032-11.27 15.866zm16.479-20.459l-1.742.101 2.658-3.741c-.111-.13-.114-.133 0 0 .912 1.519 2.134 2.004 3.487 2.004.634 0 1.296-.106 1.969-.263.742.382 1.456.856 2.099 1.405l-8.471.494zm63.417 20.459H99.864l.583-1.944.056-.187-.177-.081-3.107-1.412 2.431-2.352 9.926 4.893.873.43c.18.089.213.258.183.386a.33.33 0 0 1-.335.267z" data-color="4" class="icon1"></path><path d="M62.027 109.046c.043 0 .078-.013.099-.039.06-.075-.013-.233-.163-.353a.49.49 0 0 0-.282-.12c-.043 0-.078.013-.099.039-.06.075.013.233.163.353.097.077.203.12.282.12z" data-color="4" class="icon1"></path></g></g>
</svg>
</g><g opacity="1" transform="rotate(0 164.3868 521.6)">
<svg width="364.9856" height="80" x="164.3868" y="521.6" version="1.1" preserveAspectRatio="none" viewBox="0.6 -34.68 159.68 35">
  <g transform="matrix(1 0 0 1 0 0)" class="companyName"><path id="id-D6z1nYkh7" d="M7.28 0L0.60 0L3.92-34.36L15.56-34.36L18.84 0L12.32 0L11.84-5.56L7.68-5.56L7.28 0ZM9.48-28.52L8.20-11.04L11.32-11.04L9.80-28.52L9.48-28.52Z M30.80 0.32Q27.08 0.32 25.26-2.30Q23.44-4.92 23.44-10.24L23.44-10.24L23.44-25.04Q23.44-29.80 25.56-32.24Q27.68-34.68 31.88-34.68L31.88-34.68Q35.28-34.68 37.16-33.32Q39.04-31.96 39.76-29.36Q40.48-26.76 40.48-22.68L40.48-22.68L33.76-22.68L33.76-25.76Q33.76-27 33.42-27.68Q33.08-28.36 32.20-28.36L32.20-28.36Q30.24-28.36 30.24-25.80L30.24-25.80L30.24-9.16Q30.24-7.60 30.64-6.80Q31.04-6 32.04-6L32.04-6Q33.04-6 33.44-6.80Q33.84-7.60 33.84-9.16L33.84-9.16L33.84-14.08L32-14.08L32-20L40.40-20L40.40 0L37.64 0L36.48-2.88Q34.64 0.32 30.80 0.32L30.80 0.32Z M53.00 0.32Q49.28 0.32 47.46-2.30Q45.64-4.92 45.64-10.24L45.64-10.24L45.64-25.04Q45.64-29.80 47.76-32.24Q49.88-34.68 54.08-34.68L54.08-34.68Q57.48-34.68 59.36-33.32Q61.24-31.96 61.96-29.36Q62.68-26.76 62.68-22.68L62.68-22.68L55.96-22.68L55.96-25.76Q55.96-27 55.62-27.68Q55.28-28.36 54.40-28.36L54.40-28.36Q52.44-28.36 52.44-25.80L52.44-25.80L52.44-9.16Q52.44-7.60 52.84-6.80Q53.24-6 54.24-6L54.24-6Q55.24-6 55.64-6.80Q56.04-7.60 56.04-9.16L56.04-9.16L56.04-14.08L54.20-14.08L54.20-20L62.60-20L62.60 0L59.84 0L58.68-2.88Q56.84 0.32 53.00 0.32L53.00 0.32Z M73.88 0L67.20 0L70.52-34.36L82.16-34.36L85.44 0L78.92 0L78.44-5.56L74.28-5.56L73.88 0ZM76.08-28.52L74.80-11.04L77.92-11.04L76.40-28.52L76.08-28.52Z M90.32 0L90.32-34.36L100.88-34.36Q103.40-34.36 104.78-33.22Q106.16-32.08 106.64-30.02Q107.12-27.96 107.12-24.76L107.12-24.76Q107.12-21.84 106.36-20.20Q105.60-18.56 103.72-17.92L103.72-17.92Q105.28-17.60 105.98-16.36Q106.68-15.12 106.68-13L106.68-13L106.60 0L99.88 0L99.88-13.44Q99.88-14.88 99.32-15.28Q98.76-15.68 97.28-15.68L97.28-15.68L97.28 0L90.32 0ZM97.32-21.64L98.96-21.64Q100.40-21.64 100.40-24.76L100.40-24.76Q100.40-26.12 100.28-26.80Q100.16-27.48 99.84-27.74Q99.52-28 98.92-28L98.92-28L97.32-28L97.32-21.64Z M117.96 0L111.28 0L114.60-34.36L126.24-34.36L129.52 0L123 0L122.52-5.56L118.36-5.56L117.96 0ZM120.16-28.52L118.88-11.04L122-11.04L120.48-28.52L120.16-28.52Z M144.92 0L136.52 0L132.84-34.36L139.56-34.36L141.48-12.68L143.40-34.36L149.80-34.36L151.64-12.68L153.48-34.36L160.28-34.36L156.52 0L148.28 0L146.56-16.56L144.92 0Z"/></g>
</svg>
</g></svg></svg>