<svg version="1.1" preserveAspectRatio="none" xmlns="http://www.w3.org/2000/svg" width="500" height="500" viewBox="0 0 500 500"><rect width="100%" height="100%" fill="#FFFFFF" fill-opacity="1"/><svg viewBox="96.8063 203.2263 329.2111 125.8764" width="333" height="127.32511510091854" x="83.5px" y="186.3374px" xmlns="http://www.w3.org/2000/svg" xmlns:xlink="http://www.w3.org/1999/xlink" preserveAspectRatio="none"><defs></defs><style>.companyName {fill:#727373;fill-opacity:1;}.icon1 {fill:#F1B4BB;fill-opacity:1;}.icon2 {fill:#727373;fill-opacity:1;}.icon3 {fill:#C0777F;fill-opacity:1;}.icon3-str {stroke:#C0777F;stroke-opacity:1;}</style><g opacity="1" transform="rotate(0 212.0302 203.2263)">
<svg width="98.7633" height="59.8764" x="212.0302" y="203.2263" version="1.1" preserveAspectRatio="none" viewBox="16.93801498413086 41.106693267822266 159.99899291992188 97.00129699707031">
  <g transform="matrix(1 0 0 1 0 0)" ><g><path d="M152.948 67.475c-8.123 6.461-16.364 12.668-24.883 18.48a461.957 461.957 0 0 1-12.86 8.584 353.04 353.04 0 0 1-6.518 4.17c-2.238 1.432-4.126 2.559-6.137 3.515-1.929.9-3.919 1.492-5.071 1.447-.578-.012-.851-.115-1.029-.217-.299-.195-.296-.213-.345-.271-.169-.101-.368-1.922.08-4.044.394-2.152 1.092-4.572 1.778-7.156.669-2.597 1.393-5.351 1.745-8.519.307-3.102.384-6.991-1.678-10.909-.999-1.859-2.557-3.618-4.392-4.837-1.839-1.221-3.834-1.884-5.685-2.217-3.724-.614-6.961-.141-9.944.584-2.979.757-5.721 1.839-8.336 3.116-2.566 1.256-5.187 2.831-7.337 4.465-4.453 3.136-8.625 6.625-12.597 10.296-15.72 14.786-27.721 33.633-32.801 54.146 9.068-18.982 22.348-35.242 38.24-47.83 3.968-3.146 8.082-6.094 12.404-8.67 4.091-2.578 8.43-4.494 12.741-5.356 2.102-.415 4.183-.531 5.625-.191 1.488.393 1.873.808 2.318 1.65.405.779.578 2.389.291 4.438-.267 2.038-.894 4.366-1.597 6.817-.693 2.466-1.477 5.077-2.064 8.073-.282 1.51-.512 3.143-.502 5.021.02 1.856.292 4.085 1.42 6.355 1.13 2.294 3.129 4.144 5.123 5.193 2.12 1.162 4.489 1.6 6.521 1.589 4.118-.064 7.17-1.338 9.971-2.601 2.721-1.292 5.296-2.925 7.412-4.393a319.424 319.424 0 0 0 6.565-4.513c4.307-3.115 8.594-6.265 12.707-9.647 16.483-13.457 31.37-29.008 42.824-46.802-8.013 6.904-15.872 13.762-23.989 20.234z" data-color="1" class="icon1"></path><path d="M98.855 59.423c5.041-.521 8.705-5.033 8.185-10.077s-5.028-8.711-10.069-8.19c-5.041.521-8.705 5.033-8.185 10.077.52 5.045 5.028 8.711 10.069 8.19z" data-color="1" class="icon1"></path></g></g>
</svg>
</g><g opacity="1" transform="rotate(0 96.8063 289.1027)">
<svg width="329.2111" height="40" x="96.8063" y="289.1027" version="1.1" preserveAspectRatio="none" viewBox="0.3906 -27.3633 228.9024 27.8125">
  <g transform="matrix(1 0 0 1 0 0)" class="companyName"><path id="id-D6z1nYkh7" d="M16.78-11.54L16.78-11.54L16.78-11.78Q16.78-13.07 13.46-21.37L13.46-21.37Q12.99-22.54 12.90-22.54Q12.81-22.54 10.85-17.30Q8.89-12.07 8.89-11.62L8.89-11.62Q8.89-11.27 10.76-11.27L10.76-11.27L14.12-11.27Q16.78-11.27 16.78-11.54ZM0.39-1.04L0.39-1.04Q0.39-1.43 1.57-2.17Q2.75-2.91 3.40-4.36L3.40-4.36Q3.42-4.41 4.73-7.80Q6.04-11.19 7.61-14.91Q9.18-18.63 9.67-20.07Q10.16-21.50 10.76-23.46Q11.37-25.41 11.62-25.84L11.62-25.84Q12.40-27.17 13.73-27.17L13.73-27.17Q14.18-27.17 14.67-26.82L14.67-26.82Q16.13-25.74 18.07-20.08L18.07-20.08Q18.83-17.85 21.29-11.23Q23.75-4.61 24.22-3.63Q24.69-2.66 25.47-2.21L25.47-2.21Q27.07-1.29 27.07-0.86L27.07-0.86Q27.07-0.10 24.06-0.10L24.06-0.10L21.76-0.10Q18.34-0.10 18.34-0.80L18.34-0.80Q18.34-1.27 18.98-1.96Q19.63-2.66 19.63-3.39Q19.63-4.12 18.86-6.06Q18.09-8.01 17.71-8.52L17.71-8.52Q17.03-9.45 14.84-9.45L14.84-9.45L13.71-9.49Q13.13-9.51 11.97-9.51L11.97-9.51Q8.83-9.51 8.22-8.99Q7.62-8.48 6.78-6.32Q5.94-4.16 5.94-3.38Q5.94-2.60 6.75-1.84Q7.56-1.07 7.56-0.94L7.56-0.94Q7.56-0.25 5.64-0.25L5.64-0.25Q0.39-0.25 0.39-1.04Z M47.36-27.36L47.36-27.36Q47.96-27.36 52.81-26.70L52.81-26.70L53.51-26.62L54.18-26.56Q55.11-26.46 55.41-26.35L55.41-26.35Q56.66-25.84 56.66-22.81L56.66-22.81Q56.66-20.49 55.37-20.49L55.37-20.49Q55.00-20.49 53.92-22.05Q52.85-23.61 51.99-24.14L51.99-24.14Q49.98-25.35 46.75-25.35L46.75-25.35Q44.90-25.35 43.22-24.38L43.22-24.38Q38.18-21.50 38.18-13.34L38.18-13.34Q38.18-10.90 38.95-8.54Q39.72-6.19 41.13-4.71Q42.54-3.22 44.10-2.61Q45.66-1.99 48.16-1.99Q50.66-1.99 51.78-3.22Q52.91-4.45 52.91-7.83L52.91-7.83Q52.91-9.12 52.14-9.98L52.14-9.98Q51.93-10.23 51.21-10.70Q50.48-11.17 50.48-11.43L50.48-11.43Q50.48-12.21 54.29-12.21Q58.10-12.21 58.10-11.25L58.10-11.25Q58.10-11.04 57.58-10.28Q57.07-9.53 56.95-8.88Q56.83-8.22 56.77-6.59Q56.71-4.96 56.62-3.71Q56.52-2.46 55.92-1.90Q55.33-1.35 52.28-0.45Q49.23 0.45 46.73 0.45L46.73 0.45Q44.23 0.43 41.77-0.51L41.77-0.51Q36.79-2.44 34.88-7.52L34.88-7.52Q33.86-10.23 33.86-13.07L33.86-13.07L33.86-13.89Q33.86-13.93 33.86-13.98L33.86-13.98Q33.86-16.68 34.94-19.34L34.94-19.34Q37.03-24.53 41.83-26.37L41.83-26.37Q44.41-27.36 47.36-27.36Z M80.09-27.36L80.09-27.36Q80.70-27.36 85.54-26.70L85.54-26.70L86.24-26.62L86.91-26.56Q87.84-26.46 88.14-26.35L88.14-26.35Q89.39-25.84 89.39-22.81L89.39-22.81Q89.39-20.49 88.10-20.49L88.10-20.49Q87.73-20.49 86.65-22.05Q85.58-23.61 84.72-24.14L84.72-24.14Q82.71-25.35 79.48-25.35L79.48-25.35Q77.63-25.35 75.95-24.38L75.95-24.38Q70.91-21.50 70.91-13.34L70.91-13.34Q70.91-10.90 71.68-8.54Q72.45-6.19 73.86-4.71Q75.27-3.22 76.83-2.61Q78.39-1.99 80.89-1.99Q83.39-1.99 84.51-3.22Q85.64-4.45 85.64-7.83L85.64-7.83Q85.64-9.12 84.88-9.98L84.88-9.98Q84.66-10.23 83.94-10.70Q83.21-11.17 83.21-11.43L83.21-11.43Q83.21-12.21 87.02-12.21Q90.83-12.21 90.83-11.25L90.83-11.25Q90.83-11.04 90.31-10.28Q89.80-9.53 89.68-8.88Q89.56-8.22 89.50-6.59Q89.45-4.96 89.35-3.71Q89.25-2.46 88.65-1.90Q88.06-1.35 85.01-0.45Q81.96 0.45 79.46 0.45L79.46 0.45Q76.96 0.43 74.50-0.51L74.50-0.51Q69.52-2.44 67.61-7.52L67.61-7.52Q66.59-10.23 66.59-13.07L66.59-13.07L66.59-13.89Q66.59-13.93 66.59-13.98L66.59-13.98Q66.59-16.68 67.67-19.34L67.67-19.34Q69.76-24.53 74.56-26.37L74.56-26.37Q77.14-27.36 80.09-27.36Z M113.97-11.54L113.97-11.54L113.97-11.78Q113.97-13.07 110.65-21.37L110.65-21.37Q110.18-22.54 110.10-22.54Q110.01-22.54 108.04-17.30Q106.08-12.07 106.08-11.62L106.08-11.62Q106.08-11.27 107.96-11.27L107.96-11.27L111.32-11.27Q113.97-11.27 113.97-11.54ZM97.59-1.04L97.59-1.04Q97.59-1.43 98.77-2.17Q99.95-2.91 100.59-4.36L100.59-4.36Q100.61-4.41 101.92-7.80Q103.23-11.19 104.80-14.91Q106.38-18.63 106.86-20.07Q107.35-21.50 107.96-23.46Q108.56-25.41 108.82-25.84L108.82-25.84Q109.60-27.17 110.93-27.17L110.93-27.17Q111.38-27.17 111.86-26.82L111.86-26.82Q113.33-25.74 115.26-20.08L115.26-20.08Q116.02-17.85 118.48-11.23Q120.95-4.61 121.41-3.63Q121.88-2.66 122.66-2.21L122.66-2.21Q124.27-1.29 124.27-0.86L124.27-0.86Q124.27-0.10 121.26-0.10L121.26-0.10L118.95-0.10Q115.54-0.10 115.54-0.80L115.54-0.80Q115.54-1.27 116.18-1.96Q116.82-2.66 116.82-3.39Q116.82-4.12 116.05-6.06Q115.28-8.01 114.91-8.52L114.91-8.52Q114.23-9.45 112.04-9.45L112.04-9.45L110.91-9.49Q110.32-9.51 109.17-9.51L109.17-9.51Q106.02-9.51 105.42-8.99Q104.81-8.48 103.97-6.32Q103.13-4.16 103.13-3.38Q103.13-2.60 103.94-1.84Q104.75-1.07 104.75-0.94L104.75-0.94Q104.75-0.25 102.84-0.25L102.84-0.25Q97.59-0.25 97.59-1.04Z M138.11-22.56L138.11-22.56L138.11-15.82Q138.11-14.47 138.35-14.14Q138.60-13.81 139.75-13.81L139.75-13.81L140.82-13.81L141.02-13.83L141.57-13.85Q141.76-13.87 141.94-13.87L141.94-13.87Q144.05-13.87 145.67-15.36Q147.29-16.86 147.29-19.22L147.29-19.22L147.29-20.04Q147.29-22.46 145.68-23.94Q144.07-25.41 140.98-25.41L140.98-25.41L140.43-25.41L140.26-25.39L139.91-25.39Q139.52-25.35 139.38-25.35L139.38-25.35Q138.56-25.35 138.33-24.85Q138.11-24.36 138.11-22.56ZM131.47-26.37L131.47-26.37Q131.47-27.03 134.07-27.03L134.07-27.03L134.73-27.05Q135.39-27.07 135.95-27.07Q136.51-27.07 137.41-27.11L137.41-27.11L138.75-27.17Q140.79-27.23 141.47-27.23L141.47-27.23Q148.56-27.23 150.59-23.05L150.59-23.05Q151.21-21.76 151.21-19.82L151.21-19.82Q151.21-16.66 148.21-14.28L148.21-14.28Q146.41-12.87 146.41-12.48L146.41-12.48Q146.41-11.86 147.15-10.61L147.15-10.61Q150.55-4.86 151.50-3.68Q152.45-2.50 153.71-2.01Q154.98-1.52 154.98-0.94L154.98-0.94Q154.98-0.63 154.37-0.27Q153.75 0.08 151.91 0.08Q150.06 0.08 149.07-0.96L149.07-0.96Q148.71-1.33 146.21-5.76Q143.70-10.20 143.09-10.76L143.09-10.76Q142.02-11.78 139.79-11.78L139.79-11.78Q138.99-11.78 138.64-10.88Q138.29-9.98 138.29-6.95Q138.29-3.93 138.59-3.17Q138.89-2.42 139.84-1.69Q140.79-0.96 140.79-0.72L140.79-0.72Q140.79-0.06 139.03-0.06L139.03-0.06L135.10-0.18Q131.45-0.18 131.45-1.17L131.45-1.17Q131.45-1.60 132.59-2.13Q133.73-2.66 134.04-3.60Q134.34-4.55 134.34-8.05L134.34-8.05L134.34-12.21L134.32-12.89Q134.30-13.55 134.30-14.24L134.30-14.24L134.26-15.57Q134.24-16.23 134.24-16.89L134.24-16.89L134.13-20.82Q134.13-23.44 133.73-24.36L133.73-24.36Q133.50-24.90 132.48-25.35Q131.47-25.80 131.47-26.37Z M177.07-11.54L177.07-11.54L177.07-11.78Q177.07-13.07 173.75-21.37L173.75-21.37Q173.28-22.54 173.19-22.54Q173.11-22.54 171.14-17.30Q169.18-12.07 169.18-11.62L169.18-11.62Q169.18-11.27 171.05-11.27L171.05-11.27L174.41-11.27Q177.07-11.27 177.07-11.54ZM160.68-1.04L160.68-1.04Q160.68-1.43 161.87-2.17Q163.05-2.91 163.69-4.36L163.69-4.36Q163.71-4.41 165.02-7.80Q166.33-11.19 167.90-14.91Q169.47-18.63 169.96-20.07Q170.45-21.50 171.05-23.46Q171.66-25.41 171.91-25.84L171.91-25.84Q172.70-27.17 174.02-27.17L174.02-27.17Q174.47-27.17 174.96-26.82L174.96-26.82Q176.43-25.74 178.36-20.08L178.36-20.08Q179.12-17.85 181.58-11.23Q184.04-4.61 184.51-3.63Q184.98-2.66 185.76-2.21L185.76-2.21Q187.36-1.29 187.36-0.86L187.36-0.86Q187.36-0.10 184.36-0.10L184.36-0.10L182.05-0.10Q178.63-0.10 178.63-0.80L178.63-0.80Q178.63-1.27 179.28-1.96Q179.92-2.66 179.92-3.39Q179.92-4.12 179.15-6.06Q178.38-8.01 178.01-8.52L178.01-8.52Q177.32-9.45 175.14-9.45L175.14-9.45L174.00-9.49Q173.42-9.51 172.27-9.51L172.27-9.51Q169.12-9.51 168.52-8.99Q167.91-8.48 167.07-6.32Q166.23-4.16 166.23-3.38Q166.23-2.60 167.04-1.84Q167.85-1.07 167.85-0.94L167.85-0.94Q167.85-0.25 165.94-0.25L165.94-0.25Q160.68-0.25 160.68-1.04Z M195.19-26.95L195.19-26.95Q198.10-26.95 198.92-26.21Q199.74-25.47 199.74-22.99Q199.74-20.51 202.89-10.90L202.89-10.90Q203.75-8.26 204.66-8.26L204.66-8.26Q205.25-8.26 205.87-9.27Q206.48-10.27 207.42-13.53Q208.36-16.78 208.36-20.41L208.36-20.41Q208.36-21.25 208.02-22.30L208.02-22.30L207.71-23.09L207.46-23.85Q207.46-25.04 208.66-25.76Q209.86-26.48 211.14-26.48Q212.42-26.48 213.38-25.94L213.38-25.94Q214.96-25.02 214.96-24.10L214.96-24.10L214.90-23.34L214.68-22.62L214.57-21.88Q214.57-21.04 216.21-15.68Q217.85-10.33 218.28-9.33Q218.71-8.32 219.59-8.32L219.59-8.32Q220.31-8.32 221.05-10.61L221.05-10.61Q224.20-20.21 224.20-22.21L224.20-22.21Q224.20-22.91 224.06-23.89L224.06-23.89L223.86-25.25Q223.86-27.07 226.70-27.07L226.70-27.07Q228.06-27.07 228.68-26.65Q229.29-26.23 229.29-25.69Q229.29-25.16 228.61-23.96L228.61-23.96L228.06-23.14Q227.22-21.88 226.99-21.39L226.99-21.39L226.58-20.37Q226.07-19.04 224.10-12.72Q222.13-6.41 221.29-4.51Q220.45-2.62 219.67-1.98Q218.90-1.35 218.34-1.35L218.34-1.35Q217.01-1.35 215.86-4.16L215.86-4.16Q215.39-5.31 213.73-10.62Q212.07-15.92 211.60-17.07L211.60-17.07L211.25-17.79Q210.86-17.79 208.75-11.52Q206.64-5.25 205.88-3.67L205.88-3.67Q204.74-1.31 203.30-1.31L203.30-1.31L202.67-1.50Q201.75-2.01 201.15-3.29Q200.54-4.57 198.55-11.19Q196.56-17.81 195.88-19.62Q195.21-21.43 194.13-23.24Q193.04-25.06 193.04-25.49Q193.04-25.92 193.60-26.44Q194.16-26.95 195.19-26.95Z"/></g>
</svg>
</g></svg></svg>